<?xml version="1.0" encoding="UTF-8" standalone="no"?>
<svg
   width="29"
   height="26"
   viewBox="0 0 29 26"
   fill="none"
   class="svg"
   version="1.1"
   id="svg18"
   sodipodi:docname="favicon.svg"
   inkscape:version="1.1.2 (b8e25be833, 2022-02-05)"
   xmlns:inkscape="http://www.inkscape.org/namespaces/inkscape"
   xmlns:sodipodi="http://sodipodi.sourceforge.net/DTD/sodipodi-0.dtd"
   xmlns="http://www.w3.org/2000/svg"
   xmlns:svg="http://www.w3.org/2000/svg">
  <defs
     id="defs22" />
  <sodipodi:namedview
     id="namedview20"
     pagecolor="#505050"
     bordercolor="#eeeeee"
     borderopacity="1"
     inkscape:pageshadow="0"
     inkscape:pageopacity="0"
     inkscape:pagecheckerboard="0"
     showgrid="false"
     width="63px"
     inkscape:zoom="18.46875"
     inkscape:cx="-2.9780034"
     inkscape:cy="12.994924"
     inkscape:window-width="1920"
     inkscape:window-height="1017"
     inkscape:window-x="-8"
     inkscape:window-y="-8"
     inkscape:window-maximized="1"
     inkscape:current-layer="svg18" />
  <path
     d="m 19.161482,16.812519 c 0.5725,-1.9934 1.9147,-1.6578 2.4459,0.0332 0.2263,0.5803 0.4723,1.1471 0.7261,1.6263 0.4055,0.7657 0.9895,1.6076 1.5857,2.3874 0.6667,0.872 -0.1215,2.2589 -1.1819,2.0419 -0.9713,-0.1988 -1.8739,-0.3648 -2.306,-0.3938 -0.4342,-0.0291 -1.3436,0.1228 -2.3203,0.3267 -1.0597,0.2212 -1.886,-1.1499 -1.2351,-2.0344 0.5648,-0.7676 1.1198,-1.5884 1.5173,-2.3278 0.2634,-0.4898 0.5249,-1.0687 0.7683,-1.6595 z"
     fill="#084236"
     id="path4"
     style="fill:#18c29c;fill-opacity:1" />
  <path
     d="m 25.270982,12.237319 c -0.1769,0.9773 -1.1126,1.626 -2.0898,1.4491 -0.9772,-0.1769 -1.626,-1.1126 -1.4491,-2.0898 0.177,-0.9772 1.2179,-2.3232004 2.1951,-2.1462704 0.9772,0.17693 1.5207,1.8097704 1.3438,2.7869704 z"
     fill="#084236"
     id="path6"
     style="fill:#18c29c;fill-opacity:1" />
  <path
     d="m 19.208782,11.618119 c 0.1034,0.9877 -0.6135,1.8723 -1.6013,1.9756 -0.9877,0.1034 -1.8722,-0.6135 -1.9756,-1.6012 -0.1034,-0.9877 0.3875,-2.5522204 1.3752,-2.6556104 0.9877,-0.10339 2.0983,1.2935104 2.2017,2.2812104 z"
     fill="#084236"
     id="path8"
     style="fill:#18c29c;fill-opacity:1" />
  <path
     d="m 15.922382,16.851419 c 0.1457,0.9824 -0.5325,1.8969 -1.5148,2.0427 -0.9824,0.1458 -1.8969,-0.5324 -2.0427,-1.5148 -0.1458,-0.9824 0.4478,-2.4671 1.4302,-2.6129 0.9823,-0.1458 1.9815,1.1026 2.1273,2.085 z"
     fill="#084236"
     id="path10"
     style="fill:#18c29c;fill-opacity:1" />
  <path
     d="m 28.525982,17.226119 c -0.0997,0.9881 -0.9815,1.7083 -1.9696,1.6086 -0.9881,-0.0996 -1.7083,-0.9815 -1.6087,-1.9696 0.0997,-0.9881 1.0394,-2.2818 2.0275,-2.1822 0.9881,0.0997 1.6505,1.5551 1.5508,2.5432 z"
     fill="#084236"
     id="path12"
     style="fill:#18c29c;fill-opacity:1" />
  <path
     d="m 9.7325021,5.3272986 c 0,-1.68176 1.3633799,-3.04509 3.0450799,-3.04509 1.6818,0 3.0451,1.36333 3.0451,3.04509 v 1.98183 c 0.485,-0.25704 0.9938,-0.47747 1.5225,-0.65742 v -1.32441 c 0,-2.52263 -2.045,-4.56763399 -4.5676,-4.56763399 -2.5226,0 -4.5676199,2.04500399 -4.5676299,4.56763399 v 3.04509 h -3.04509 c -2.52263,0 -4.56763404,2.0450304 -4.56763404,4.5676304 0,2.5226 2.04500404,4.5676 4.56763404,4.5676 h 3.04509 v 3.0451 c 0,2.5227 2.0450299,4.5677 4.5676299,4.5677 0.9314,0 1.7977,-0.2788 2.52,-0.7575 -0.4842,-0.294 -0.9412,-0.6258 -1.3664,-0.9912 -0.3558,0.1458 -0.7453,0.2261 -1.1536,0.2261 -1.6817,0 -3.0450799,-1.3633 -3.0450799,-3.0451 v -4.5676 h -4.56764 c -1.68175,0 -3.04509,-1.3633 -3.04509,-3.0451 0,-1.6817 1.36334,-3.0450804 3.04509,-3.0450804 h 4.56764 z"
     fill="#084236"
     id="path14"
     style="fill:#18c29c;fill-opacity:1" />
  <path
     fill-rule="evenodd"
     clip-rule="evenodd"
     d="m 12.777582,1.1402916 c -2.3124,0 -4.1869999,1.874587 -4.1869999,4.186997 v 3.04509 c 0,0.21022 -0.17042,0.38064 -0.38064,0.38064 h -3.04509 c -2.31241,0 -4.18699704,1.8746004 -4.18699704,4.1870004 0,2.3124 1.87458704,4.187 4.18699704,4.187 h 3.04509 c 0.21022,0 0.38064,0.1704 0.38064,0.3806 v 3.0451 c 0,2.3124 1.8745999,4.187 4.1869999,4.187 0.6395,0 1.2449,-0.1431 1.7866,-0.3991 -0.2442,-0.1689 -0.4806,-0.3475 -0.7087,-0.5353 -0.3393,0.1124 -0.7018,0.1732 -1.0779,0.1732 -1.892,0 -3.4257299,-1.5338 -3.4257299,-3.4258 v -4.187 h -4.187 c -1.89197,0 -3.42572,-1.5337 -3.42572,-3.4257 0,-1.892 1.53375,-3.4257304 3.42572,-3.4257304 h 4.187 v -4.187 c 0,-1.89197 1.5337299,-3.42572 3.4257299,-3.42572 1.892,0 3.4257,1.53375 3.4257,3.42572 v 1.3697 c 0.2486,-0.11388 0.5026,-0.21874 0.7613,-0.31417 v -1.05553 c 0,-2.31241 -1.8746,-4.186997 -4.187,-4.186997 z m -4.9482699,4.186997 c 0,-2.73285 2.2154199,-4.94826999 4.9482699,-4.94826999 2.7329,0 4.9483,2.21541999 4.9483,4.94826999 v 1.32441 c 0,0.16295 -0.1038,0.30783 -0.258,0.36033 -0.5095,0.17341 -0.9998,0.38579 -1.467,0.63341 -0.1179,0.06253 -0.2601,0.05867 -0.3745,-0.01018 -0.1144,-0.06885 -0.1843,-0.19261 -0.1843,-0.32614 v -1.98183 c 0,-1.47154 -1.193,-2.66445 -2.6645,-2.66445 -1.4715,0 -2.66445,1.19292 -2.66445,2.66445 v 4.56764 c 0,0.2102204 -0.1704199,0.3806404 -0.3806399,0.3806404 h -4.56764 c -1.47153,0 -2.66445,1.19295 -2.66445,2.66445 0,1.4715 1.19292,2.6645 2.66445,2.6645 h 4.56764 c 0.21022,0 0.3806399,0.1704 0.3806399,0.3806 v 4.5676 c 0,1.4716 1.19295,2.6645 2.66445,2.6645 0.3579,0 0.6985,-0.0704 1.0093,-0.1977 0.1323,-0.0542 0.2839,-0.0297 0.3924,0.0635 0.4093,0.3518 0.8494,0.6714 1.3158,0.9545 0.1114,0.0677 0.1805,0.1876 0.1831,0.3179 0.0026,0.1302 -0.0617,0.2528 -0.1703,0.3248 -0.7827,0.5187 -1.7218,0.8208 -2.7303,0.8208 -2.73285,0 -4.9482699,-2.2154 -4.9482699,-4.9483 v -2.6644 h -2.66446 c -2.73285,0 -4.94827004,-2.2154 -4.94827004,-4.9483 0,-2.73285 2.21542004,-4.9482704 4.94827004,-4.9482704 h 2.66446 z M 18.156682,10.323049 c -0.3872,-0.4299104 -0.8003,-0.6400004 -1.11,-0.6075804 -0.2877,0.03012 -0.5738,0.2864904 -0.7883,0.7715504 -0.2076,0.4696 -0.2924,1.0411 -0.2479,1.4659 0.0815,0.7786 0.7788,1.3438 1.5574,1.2623 0.7787,-0.0815 1.3438,-0.7788 1.2623,-1.5575 -0.041,-0.3917 -0.2962,-0.9157 -0.6735,-1.33467 z m 0.5657,-0.5094304 c 0.4507,0.5005404 0.8025,1.1688004 0.8649,1.7649004 0.1253,1.1968 -0.7433,2.2685 -1.9401,2.3938 -1.1968,0.1253 -2.2686,-0.7434 -2.3939,-1.9402 -0.0589,-0.563 0.05,-1.2676 0.3089,-1.85297 0.252,-0.5699704 0.7053,-1.1475504 1.4053,-1.2208204 0.678,-0.07097 1.314,0.36568 1.7549,0.85529 z m 4.0863,0.5357604 c -0.3636,0.39244 -0.6285,0.90914 -0.702,1.31504 -0.1395,0.7704 0.3719,1.508 1.1423,1.6475 0.7704,0.1394 1.508,-0.372 1.6475,-1.1424 0.0726,-0.4015 -0.0019,-0.9781 -0.2146,-1.4763 -0.2192,-0.51335 -0.5255,-0.8145504 -0.8225,-0.8683304 -0.2941,-0.05325 -0.6757,0.1198 -1.0507,0.5244904 z m -0.5584,-0.5174204 c 0.434,-0.46837 1.0616,-0.87984 1.7447,-0.75616 0.6802,0.12314 1.1343,0.72682 1.387,1.3184204 0.2591,0.6068 0.3678,1.3352 0.2635,1.9109 -0.2143,1.1841 -1.348,1.9702 -2.5321,1.7558 -1.1841,-0.2143 -1.9702,-1.348 -1.7558,-2.5321 0.1034,-0.5714 0.4473,-1.2162 0.8927,-1.6968604 z m 3.6675,5.7812604 c -0.3288,0.3852 -0.5505,0.8849 -0.5913,1.2901 -0.0786,0.779 0.4891,1.4741 1.2681,1.5527 0.7789,0.0786 1.4741,-0.4892 1.5527,-1.2681 0.0409,-0.4053 -0.0766,-0.9391 -0.3218,-1.3822 -0.2501,-0.4519 -0.575,-0.7124 -0.8885,-0.7441 -0.3135,-0.0316 -0.6839,0.1588 -1.0192,0.5516 z m -0.579,-0.4942 c 0.4065,-0.4762 1,-0.8828 1.6746,-0.8148 0.6746,0.0681 1.175,0.5851 1.4781,1.1328 0.3081,0.5566 0.472,1.2444 0.4132,1.8273 -0.1208,1.1973 -1.1893,2.0699 -2.3865,1.9491 -1.1973,-0.1207 -2.07,-1.1892 -1.9492,-2.3865 0.0588,-0.5828 0.3568,-1.2241 0.7698,-1.7079 z m -10.444,0.5272 c -0.3533,-0.3767 -0.7322,-0.5495 -1.0439,-0.5033 -0.3116,0.0463 -0.624,0.3217 -0.8527,0.7848 -0.2243,0.454 -0.3166,0.9928 -0.2568,1.3957 0.1149,0.7744 0.8359,1.3091 1.6103,1.1942 0.7744,-0.115 1.3091,-0.8359 1.1941,-1.6103 -0.0598,-0.4029 -0.3046,-0.8917 -0.651,-1.2611 z m 0.5553,-0.5208 c 0.4351,0.464 0.7628,1.0907 0.8488,1.6701 0.1766,1.1903 -0.6452,2.2985 -1.8355,2.4751 -1.1903,0.1766 -2.2984,-0.6451 -2.475,-1.8354 -0.086,-0.5795 0.0456,-1.2743 0.3272,-1.8446 0.2773,-0.5614 0.7529,-1.1012 1.4236,-1.2007 0.6707,-0.0995 1.2826,0.2789 1.7109,0.7355 z m 4.5343,0.8778 c -0.1566,0.1623 -0.324,0.4512 -0.457,0.9143 l -0.0059,0.0204 -0.008,0.0196 c -0.2461,0.5972 -0.5131,1.1892 -0.785,1.6948 -0.4099,0.7622 -0.9768,1.5995 -1.546,2.373 -0.2151,0.2923 -0.2009,0.6854 -0.0049,1.0092 0.1958,0.3235 0.5214,0.4969 0.8556,0.4271 0.492,-0.1027 0.9716,-0.1933 1.3856,-0.2547 0.4051,-0.06 0.7765,-0.0967 1.038,-0.0792 0.4631,0.0311 1.3932,0.2034 2.3568,0.4007 0.3312,0.0677 0.6465,-0.106 0.8322,-0.4293 0.1864,-0.3243 0.1925,-0.7187 -0.029,-1.0085 -0.6014,-0.7866 -1.1998,-1.6477 -1.6197,-2.4404 -0.2632,-0.4971 -0.5152,-1.0786 -0.7443,-1.6663 l -0.0047,-0.0119 -0.0038,-0.0122 c -0.1211,-0.3853 -0.2822,-0.6726 -0.4485,-0.8616 -0.1676,-0.1906 -0.3208,-0.261 -0.4328,-0.2719 -0.1,-0.0098 -0.2288,0.0216 -0.3786,0.1769 z m 1.9822,0.7159 c -0.1444,-0.4548 -0.3488,-0.8391 -0.5992,-1.1237 -0.2513,-0.2857 -0.569,-0.4916 -0.9306,-0.5268 -0.3734,-0.0363 -0.7208,0.1164 -1.0002,0.406 -0.2691,0.2789 -0.4821,0.6884 -0.6349,1.212 -0.2385,0.5777 -0.4916,1.1364 -0.7437,1.6052 -0.3853,0.7164 -0.9283,1.5207 -1.4887,2.2824 -0.4358,0.5922 -0.3623,1.327 -0.0429,1.8545 0.3195,0.5279 0.9369,0.9296 1.6623,0.7781 0.4848,-0.1012 0.9483,-0.1885 1.3417,-0.2468 0.4023,-0.0596 0.7027,-0.0843 0.8754,-0.0727 0.4011,0.0269 1.2762,0.1865 2.2551,0.3869 0.7293,0.1492 1.3383,-0.262 1.645,-0.7958 0.3062,-0.5329 0.3608,-1.2679 -0.0843,-1.8502 -0.5911,-0.7731 -1.1606,-1.5957 -1.5517,-2.3343 -0.2427,-0.4583 -0.4812,-1.0059 -0.7033,-1.5748 z"
     fill="#084236"
     id="path16"
     style="fill:#18c29c;fill-opacity:1" />
</svg>
