<?xml version="1.0" encoding="UTF-8" standalone="no"?>
<!-- Created with Inkscape (http://www.inkscape.org/) -->

<svg
   version="1.1"
   id="svg101"
   width="914"
   height="1040"
   viewBox="0 0 914 1040"
   sodipodi:docname="vaptzoomV3.svg"
   inkscape:version="1.1.2 (b8e25be833, 2022-02-05)"
   xmlns:inkscape="http://www.inkscape.org/namespaces/inkscape"
   xmlns:sodipodi="http://sodipodi.sourceforge.net/DTD/sodipodi-0.dtd"
   xmlns:xlink="http://www.w3.org/1999/xlink"
   xmlns="http://www.w3.org/2000/svg"
   xmlns:svg="http://www.w3.org/2000/svg">
  <defs
     id="defs105">
    <linearGradient
       inkscape:collect="always"
       id="linearGradient7724">
      <stop
         style="stop-color:#4e00ab;stop-opacity:1;"
         offset="0"
         id="stop7720" />
      <stop
         style="stop-color:#87179a;stop-opacity:1"
         offset="0.16176948"
         id="stop9626" />
      <stop
         style="stop-color:#ce2985;stop-opacity:1"
         offset="0.34013376"
         id="stop12434" />
      <stop
         style="stop-color:#f84c71;stop-opacity:1"
         offset="0.518498"
         id="stop12692" />
      <stop
         style="stop-color:#fa6d61;stop-opacity:1"
         offset="0.68972772"
         id="stop12694" />
      <stop
         style="stop-color:#fd954e;stop-opacity:1"
         offset="0.85025555"
         id="stop12760" />
      <stop
         style="stop-color:#fdb53d;stop-opacity:1"
         offset="1"
         id="stop7722" />
    </linearGradient>
    <linearGradient
       inkscape:collect="always"
       xlink:href="#linearGradient7724"
       id="linearGradient11663"
       x1="206.50879"
       y1="833.89813"
       x2="907.52216"
       y2="491.79919"
       gradientUnits="userSpaceOnUse" />
    <linearGradient
       inkscape:collect="always"
       xlink:href="#linearGradient7724"
       id="linearGradient14580"
       x1="213.86575"
       y1="890.30157"
       x2="894.03436"
       y2="496.70383"
       gradientUnits="userSpaceOnUse" />
    <linearGradient
       inkscape:collect="always"
       xlink:href="#linearGradient7724"
       id="linearGradient15093"
       gradientUnits="userSpaceOnUse"
       x1="213.86575"
       y1="890.30157"
       x2="894.03436"
       y2="496.70383" />
    <linearGradient
       inkscape:collect="always"
       xlink:href="#linearGradient7724"
       id="linearGradient15095"
       gradientUnits="userSpaceOnUse"
       x1="213.86575"
       y1="890.30157"
       x2="894.03436"
       y2="496.70383" />
    <linearGradient
       inkscape:collect="always"
       xlink:href="#linearGradient7724"
       id="linearGradient15097"
       gradientUnits="userSpaceOnUse"
       x1="206.50879"
       y1="833.89813"
       x2="907.52216"
       y2="491.79919" />
  </defs>
  <sodipodi:namedview
     id="namedview103"
     pagecolor="#505050"
     bordercolor="#eeeeee"
     borderopacity="1"
     inkscape:pageshadow="0"
     inkscape:pageopacity="0"
     inkscape:pagecheckerboard="0"
     showgrid="false"
     inkscape:zoom="0.5"
     inkscape:cx="654"
     inkscape:cy="202"
     inkscape:window-width="1920"
     inkscape:window-height="1017"
     inkscape:window-x="-8"
     inkscape:window-y="-8"
     inkscape:window-maximized="1"
     inkscape:current-layer="g107"
     inkscape:snap-global="false"
     width="1000px" />
  <g
     inkscape:groupmode="layer"
     inkscape:label="Image"
     id="g107">
    <g
       id="g9914"
       transform="matrix(1.1533668,0,0,1.1533668,-226.32897,-466.36801)"
       style="fill:url(#linearGradient11663);fill-opacity:1;stroke:none">
      <g
         id="g11333"
         style="fill:url(#linearGradient15097);fill-opacity:1">
        <g
           id="g13244"
           style="fill:url(#linearGradient14580);fill-opacity:1">
          <path
             id="path1996"
             style="fill:url(#linearGradient15093);fill-opacity:1;stroke:none;stroke-width:1px;stroke-linecap:butt;stroke-linejoin:miter;stroke-opacity:1"
             d="m 624.07422,319.26758 c -38.56825,-0.0849 -79.48634,4.99103 -122.5918,16.4668 -238.33188,76.86986 -345.65139,303.32864 -294.23121,511.67432 0.35924,1.50796 2.57296,1.67678 3.30741,1.00247 45.62551,-39.60451 87.86672,-83.11353 140.19921,-116.92484 2.17404,-1.56623 2.5411,-4.09419 1.58008,-5.33203 -17.25063,-20.62646 -62.36837,-26.08354 -92.89258,-25.45508 15.43038,-23.61512 36.60739,-42.45234 61.64258,-54.95313 28.61548,-16.26566 63.26602,-21.51882 104.98438,-14.24804 0.50589,0.0393 0.95337,7.7e-4 1.21093,-0.29102 15.47813,-15.78672 31.97201,-30.10702 49.55664,-43.39844 5.86155,-4.43047 11.81939,-8.73302 17.86133,-12.91406 12.08383,-8.3622 24.50203,-16.23958 37.14649,-23.6875 12.64445,-7.44792 25.51539,-14.46646 38.50586,-21.11133 100.80311,36.98212 147.12049,117.91195 128.46679,219.51563 -9.64922,7.44916 -19.96614,14.7184 -30.77734,21.71484 -10.81119,6.99642 -22.1166,13.72003 -33.74219,20.07422 -5.8128,3.17711 -11.70501,6.26116 -17.65625,9.24219 -11.90245,5.96202 -24.03886,11.50936 -36.23437,16.54492 -6.09777,2.51779 -12.21056,4.90756 -18.31641,7.1582 -0.54232,0.26455 -1.08463,0.23713 -1.62695,1.27735 -2.25995,6.94479 -4.68415,13.98803 -7.38086,21.03125 -0.0271,0.0707 -0.053,0.14029 -0.0801,0.21093 -2.70972,7.06268 -5.69598,14.12398 -9.08203,21.08594 -8.49565,17.46766 -19.48975,34.30824 -34.83985,48.95508 -3.07001,2.92937 -6.31472,5.77024 -9.74804,8.51172 -3.43333,2.74148 -7.05648,5.38353 -10.88282,7.91211 -3.82633,2.52858 -7.8564,4.94371 -12.10546,7.23437 -4.24907,2.29066 -8.71648,4.45666 -13.41797,6.48438 -4.67557,2.01654 -9.584,3.89513 -14.73633,5.62695 -0.0577,0.0194 -0.11604,0.0373 -0.17383,0.0566 -5.15725,1.7283 -10.55726,3.31171 -16.2207,4.73047 -6.3e-4,1.6e-4 -0.001,-1.6e-4 -0.002,0 -5.69494,1.42661 -11.65424,2.69061 -17.89063,3.7793 18.84883,-28.56073 29.21754,-70.24464 24.72656,-106.01953 -0.69667,-10.69134 -6.3224,-8.10261 -12.50586,-6.15235 -72.86141,26.8312 -155.81735,79.33571 -188.72459,140.96484 -19.31191,46.07709 33.54662,52.51259 71.97852,46.84969 95.26774,104.9896 230.83223,143.3924 344.3125,135.6015 247.99972,-21.7117 362.52507,-207.83158 386.92577,-337.91408 3.4297,-26.23758 -20.9801,-26.8854 -29.9511,-20.69336 -38.11005,20.06253 -76.14188,40.33993 -124.16608,33.49218 -19.3642,-2.73727 -32.94618,-27.35404 -12.5664,-41.54297 4.40426,-2.27368 10.41468,-2.12564 19.23828,-4.74609 83.00149,-25.45877 163.1226,-145.53438 165.1446,-228.99805 -1.9368,-54.61997 -29.7269,-75.3816 -78.48445,-61.4707 -65.62804,-93.67416 -188.63066,-190.978 -355.75973,-191.34567 z m 21.49023,184.67383 c 54.43547,0.47189 105.22715,12.64632 151.85352,37.70312 1.72417,0.82111 3.61247,1.6104 3.27539,6.10547 -3.81601,52.13133 -15.0721,98.64062 -48.14648,152.56836 0.64556,-65.73262 -33.66938,-151.25448 -117.91797,-196.31445 3.66125,-0.0722 7.30651,-0.094 10.93554,-0.0625 z"
             sodipodi:nodetypes="ccccccccccsssccssssccscssssssscsccccccccccccccsccccccc"
             transform="matrix(0.86702686,0,0,0.86702686,27.94268,127.92544)" />
          <path
             id="path1992"
             style="fill:url(#linearGradient15095);fill-opacity:1;fill-rule:evenodd;stroke:none;stroke-width:1.0183"
             d="m 512.80559,621.92188 a 90.391602,90.391602 0 0 0 -90.39063,90.39257 90.391602,90.391602 0 0 0 90.39063,90.39063 90.391602,90.391602 0 0 0 90.39258,-90.39063 90.391602,90.391602 0 0 0 -90.39258,-90.39257 z m -42.70508,26.40039 a 26.893076,27.097296 0 0 1 26.89453,27.0957 26.893076,27.097296 0 0 1 -26.89453,27.09765 26.893076,27.097296 0 0 1 -26.89258,-27.09765 26.893076,27.097296 0 0 1 26.89258,-27.0957 z" />
        </g>
      </g>
    </g>
    <path
       style="fill:none;stroke:none;stroke-width:1.15337px;stroke-linecap:butt;stroke-linejoin:miter;stroke-opacity:1"
       d="m 207.03592,851.62281 c 8.67873,40.33911 35.14567,66.84672 54.42032,102.38034 48.67986,-50.38147 106.60451,-73.96343 164.02634,-104.67803 5.39932,-2.31038 11.94313,-5.38528 13.1506,5.89758 4.49098,35.77489 -5.87747,77.45822 -24.72629,106.01895 99.79276,-17.42085 128.36447,-79.70558 146.55937,-135.61833 l 1.62742,-1.27805 c 48.84684,-18.0051 98.12984,-44.93801 136.72673,-74.73464 C 717.47411,648.00695 671.15706,567.07832 570.35394,530.0962 518.39208,556.67568 468.33943,589.23362 427.06443,631.33155 l -0.805,0.16656 c -70.48564,-12.28441 -132.64512,16.9076 -166.81486,69.20201 30.52421,-0.62846 75.64327,4.82811 92.8939,25.45456 0.96102,1.23784 0.59369,3.76536 -1.58035,5.33159 -56.00957,31.45955 -99.14963,79.41846 -143.7222,120.13654 z"
       id="path15724"
       sodipodi:nodetypes="ccccccccccccccc" />
    <path
       style="fill:none;stroke:none;stroke-width:1.15337px;stroke-linecap:butt;stroke-linejoin:miter;stroke-opacity:1"
       d="m 634.62881,504.00319 c 84.24859,45.05998 118.56379,130.58262 117.91823,196.31524 33.0744,-53.92774 44.33116,-100.43647 48.14717,-152.56779 0.33708,-4.49508 -1.55135,-5.28579 -3.27552,-6.1069 C 747.6839,514.91649 693.20894,502.84798 634.62881,504.00319 Z"
       id="path2243"
       sodipodi:nodetypes="ccccc" />
  </g>
</svg>
